<svg xmlns="http://www.w3.org/2000/svg" version="1.1" xmlns:xlink="http://www.w3.org/1999/xlink" xmlns:svgjs="http://svgjs.dev/svgjs" width="2000" height="2000" viewBox="0 0 2000 2000"><g transform="matrix(1,0,0,1,-0.28443113772425477,-0.28443113772459583)"><svg viewBox="0 0 334 334" data-background-color="#ede1d1" preserveAspectRatio="xMidYMid meet" height="2000" width="2000" xmlns="http://www.w3.org/2000/svg" xmlns:xlink="http://www.w3.org/1999/xlink"><g id="tight-bounds" transform="matrix(1,0,0,1,0.04749999999998522,0.04750000000001364)"><svg viewBox="0 0 333.90454557049503 333.90454557049503" height="333.90454557049503" width="333.90454557049503"><g><svg></svg></g><g><svg viewBox="0 0 333.90454557049503 333.90454557049503" height="333.90454557049503" width="333.90454557049503"><g><path d="M0 166.952c0-92.205 74.747-166.952 166.952-166.952 92.205 0 166.952 74.747 166.953 166.952 0 92.205-74.747 166.952-166.953 166.953-92.205 0-166.952-74.747-166.952-166.953zM166.952 327.306c88.561 0 160.354-71.793 160.354-160.354 0-88.561-71.793-160.354-160.354-160.354-88.561 0-160.354 71.793-160.354 160.354 0 88.561 71.793 160.354 160.354 160.354z" data-fill-palette-color="tertiary" fill="#000000" stroke="transparent"></path><ellipse rx="160.27418187383762" ry="160.27418187383762" cx="166.95227278524752" cy="166.95227278524752" fill="#000000" stroke="transparent" stroke-width="0" fill-opacity="1" data-fill-palette-color="tertiary"></ellipse></g><g transform="matrix(1,0,0,1,65.7636122012301,71.17305217166896)"><svg viewBox="0 0 202.37732116803483 191.55844122715712" height="191.55844122715712" width="202.37732116803483"><g><svg viewBox="0 0 202.37732116803483 191.55844122715712" height="191.55844122715712" width="202.37732116803483"><g><svg viewBox="0 0 213.15844122715708 201.7632138829506" height="191.55844122715712" width="202.37732116803483"><g transform="matrix(1,0,0,1,0,124.69776051836128)"><svg viewBox="0 0 213.15844122715708 77.06545336458933" height="77.06545336458933" width="213.15844122715708"><g id="textblocktransform"><svg viewBox="0 0 213.15844122715708 77.06545336458933" height="77.06545336458933" width="213.15844122715708" id="textblock"><g><svg viewBox="0 0 213.15844122715708 77.06545336458933" height="77.06545336458933" width="213.15844122715708"><g transform="matrix(1,0,0,1,0,0)"><svg width="213.15844122715708" viewBox="0.636666600002 -35 97.903333399998 35.4" height="77.06545336458933" data-palette-color="#ede1d1"><path d="M16.8 0Q16.35 0 16.25-0.45L16.25-0.45 15-6.65Q15-6.75 14.93-6.8 14.85-6.85 14.75-6.85L14.75-6.85 5.7-6.85Q5.6-6.85 5.53-6.8 5.45-6.75 5.45-6.65L5.45-6.65 4.2-0.45Q4.15 0 3.65 0L3.65 0 1.1 0Q0.85 0 0.73-0.15 0.6-0.3 0.65-0.55L0.65-0.55 8.15-34.55Q8.25-35 8.7-35L8.7-35 11.7-35Q12.2-35 12.25-34.55L12.25-34.55 19.85-0.55 19.85-0.45Q19.85 0 19.4 0L19.4 0 16.8 0ZM6.1-9.95Q6.1-9.75 6.25-9.75L6.25-9.75 14.15-9.75Q14.3-9.75 14.3-9.95L14.3-9.95 10.3-29.6Q10.25-29.75 10.2-29.75 10.15-29.75 10.1-29.6L10.1-29.6 6.1-9.95ZM24.05 0Q23.55 0 23.55-0.5L23.55-0.5 23.55-34.5Q23.55-35 24.05-35L24.05-35 26.6-35Q27.1-35 27.1-34.5L27.1-34.5 27.1-14.4Q27.1-14.3 27.2-14.25 27.3-14.2 27.35-14.3L27.35-14.3 34.85-25Q35.05-25.3 35.45-25.3L35.45-25.3 38.05-25.3Q38.35-25.3 38.45-25.13 38.55-24.95 38.35-24.7L38.35-24.7 33.4-17.6Q33.25-17.45 33.35-17.3L33.35-17.3 39.25-0.55 39.3-0.35Q39.3 0 38.85 0L38.85 0 36.2 0Q35.75 0 35.6-0.4L35.6-0.4 31.15-14.3Q31.1-14.6 30.85-14.35L30.85-14.35 27.2-9.15Q27.1-9.05 27.1-8.9L27.1-8.9 27.1-0.5Q27.1 0 26.6 0L26.6 0 24.05 0ZM51.2-25.7Q54.7-25.7 56.8-23.43 58.9-21.15 58.9-17.35L58.9-17.35 58.9-0.5Q58.9 0 58.4 0L58.4 0 55.85 0Q55.35 0 55.35-0.5L55.35-0.5 55.35-2Q55.35-2.1 55.27-2.13 55.2-2.15 55.1-2.05L55.1-2.05Q53.25 0.4 49.55 0.4L49.55 0.4Q46.8 0.4 44.77-1.18 42.75-2.75 42.75-6.75L42.75-6.75Q42.75-11 45.2-12.98 47.65-14.95 51.65-14.95L51.65-14.95 55.15-14.95Q55.35-14.95 55.35-15.15L55.35-15.15 55.35-17.1Q55.35-19.6 54.2-21.1 53.05-22.6 51.1-22.6L51.1-22.6Q49.6-22.6 48.52-21.6 47.45-20.6 47.25-19.05L47.25-19.05Q47.25-18.55 46.75-18.55L46.75-18.55 43.95-18.6Q43.7-18.6 43.57-18.75 43.45-18.9 43.5-19.1L43.5-19.1Q43.75-22.05 45.9-23.88 48.05-25.7 51.2-25.7L51.2-25.7ZM50.3-2.7Q52.35-2.7 53.85-4.03 55.35-5.35 55.35-7.7L55.35-7.7 55.35-11.9Q55.35-12.1 55.15-12.1L55.15-12.1 51.6-12.1Q49.2-12.1 47.8-10.83 46.4-9.55 46.4-7.05L46.4-7.05Q46.4-4.85 47.47-3.78 48.55-2.7 50.3-2.7L50.3-2.7ZM71.04 0.25Q67.59 0.25 65.52-1.53 63.44-3.3 63.44-6.25L63.44-6.25 63.44-6.6Q63.44-7.1 63.94-7.1L63.94-7.1 66.34-7.1Q66.84-7.1 66.84-6.6L66.84-6.6 66.84-6.3Q66.84-4.7 68.02-3.6 69.19-2.5 71.09-2.5L71.09-2.5Q72.89-2.5 73.99-3.6 75.09-4.7 75.09-6.4L75.09-6.4Q75.09-7.7 74.39-8.58 73.69-9.45 72.77-9.95 71.84-10.45 69.99-11.25L69.99-11.25Q68.04-12.05 66.77-12.83 65.49-13.6 64.57-15.03 63.64-16.45 63.64-18.65L63.64-18.65Q63.64-21.85 65.62-23.7 67.59-25.55 70.94-25.55L70.94-25.55Q74.34-25.55 76.34-23.65 78.34-21.75 78.34-18.6L78.34-18.6 78.34-18.45Q78.34-17.95 77.84-17.95L77.84-17.95 75.54-17.95Q75.04-17.95 75.04-18.45L75.04-18.45 75.04-18.75Q75.04-20.45 73.92-21.55 72.79-22.65 70.99-22.65L70.99-22.65Q69.19-22.65 68.12-21.53 67.04-20.4 67.04-18.75L67.04-18.75Q67.04-17.55 67.69-16.73 68.34-15.9 69.29-15.38 70.24-14.85 71.94-14.1L71.94-14.1Q73.99-13.2 75.32-12.4 76.64-11.6 77.64-10.15 78.64-8.7 78.64-6.55L78.64-6.55Q78.64-3.45 76.59-1.6 74.54 0.25 71.04 0.25L71.04 0.25ZM92.14-25.65Q95.19-25.65 96.87-23.55 98.54-21.45 98.54-17.7L98.54-17.7 98.54-0.5Q98.54 0 98.04 0L98.04 0 95.49 0Q94.99 0 94.99-0.5L94.99-0.5 94.99-17.4Q94.99-19.85 93.92-21.2 92.84-22.55 90.94-22.55L90.94-22.55Q88.94-22.55 87.82-21.1 86.69-19.65 86.69-17.15L86.69-17.15 86.69-0.5Q86.69 0 86.19 0L86.19 0 83.64 0Q83.14 0 83.14-0.5L83.14-0.5 83.14-34.5Q83.14-35 83.64-35L83.64-35 86.19-35Q86.69-35 86.69-34.5L86.69-34.5 86.69-23.2Q86.69-23.1 86.79-23.05 86.89-23 86.94-23.15L86.94-23.15Q87.84-24.4 89.22-25.03 90.59-25.65 92.14-25.65L92.14-25.65Z" opacity="1" transform="matrix(1,0,0,1,0,0)" fill="#ffffff" class="wordmark-text-0" data-fill-palette-color="quaternary" id="text-0"></path></svg></g></svg></g></svg></g></svg></g><g transform="matrix(1,0,0,1,66.04138945353989,0)"><svg viewBox="0 0 81.07566232007731 106.50445654986248" height="106.50445654986248" width="81.07566232007731"><g><svg xmlns="http://www.w3.org/2000/svg" xmlns:xlink="http://www.w3.org/1999/xlink" version="1.1" x="0" y="0" viewBox="14.5 3.3 71.1 93.4" enable-background="new 0 0 100 100" xml:space="preserve" height="106.50445654986248" width="81.07566232007731" class="icon-icon-0" data-fill-palette-color="quaternary" id="icon-0"><path d="M52.1 84.4V92.5H64.3C65.5 92.5 66.4 93.5 66.4 94.6S65.4 96.7 64.3 96.7H35.7C34.5 96.7 33.6 95.7 33.6 94.6S34.6 92.5 35.7 92.5H47.9V84.4H18.7C16.4 84.4 14.5 82.5 14.5 80.2V39.9C14.5 37.6 16.4 35.7 18.7 35.7H33C34.2 35.7 35.1 36.7 35.1 37.8S34.1 39.9 33 39.9H18.7V80.2H81.3V39.9H67.1C65.9 39.9 65 38.9 65 37.8S66 35.7 67.1 35.7H81.4C83.7 35.7 85.6 37.6 85.6 39.9V80.2C85.6 82.5 83.7 84.4 81.4 84.4zM50.2 3.3C53.7 3.4 56.5 6.3 56.4 9.8 56.3 12.5 54.6 14.8 52.2 15.6V68.5C52.2 69.7 51.2 70.6 50.1 70.6 48.9 70.6 48 69.6 48 68.5V15.6C47.1 15.3 46.2 14.7 45.5 14 44.3 12.8 43.7 11.2 43.7 9.5 43.8 6.1 46.6 3.3 50.1 3.3zM50.1 7.5C48.9 7.5 48 8.4 47.9 9.6 47.9 10.2 48.1 10.7 48.5 11.1S49.4 11.7 50 11.8H50.1C51.2 11.8 52.2 10.9 52.2 9.7 52.1 8.5 51.2 7.6 50.1 7.5M57.2 58.6V25.9C57.2 22.1 60.3 19 64.1 19H68.9C69.8 16.5 72.1 14.8 74.9 14.8 78.4 14.8 81.3 17.7 81.3 21.2S78.4 27.6 74.9 27.6C72.1 27.6 69.8 25.8 68.9 23.4H64.1C62.6 23.4 61.5 24.6 61.5 26V58.7C61.5 59.9 60.5 60.8 59.4 60.8 58.2 60.8 57.2 59.8 57.2 58.6M72.8 21.2C72.8 22.4 73.7 23.3 74.9 23.3S77 22.4 77 21.2 76.1 19 74.9 19 72.8 20 72.8 21.2M38.5 58.6V25.9C38.5 24.4 37.3 23.3 35.9 23.3H31.1C30.2 25.8 27.9 27.5 25.1 27.5 21.6 27.5 18.7 24.6 18.7 21.1S21.6 14.7 25.1 14.7C27.9 14.7 30.2 16.5 31.1 18.9H35.9C39.7 18.9 42.8 22 42.8 25.8V58.5C42.8 59.7 41.8 60.6 40.7 60.6S38.5 59.8 38.5 58.6M27.2 21.2C27.2 20 26.3 19.1 25.1 19.1S23 20 23 21.2 23.9 23.3 25.1 23.3 27.2 22.3 27.2 21.2" fill="#ffffff" data-fill-palette-color="quaternary"></path></svg></g></svg></g><g></g></svg></g></svg></g></svg></g></svg></g><defs></defs></svg><rect width="333.90454557049503" height="333.90454557049503" fill="none" stroke="none" visibility="hidden"></rect></g></svg></g></svg>